# xmcd
#
# Track frame offsets: 
#        150
#        13835
#        27135
#        40390
#        53865
#        68901
#        83030
#        95552
#        109244
#        123003
#        135487
#        148566
#        161196
#        173871
#        187025
#        200646
#        214772
#        228279
#        241229
#        254170
#        267154
#        280203
#        293293
#
# Disc length: 4079 seconds
#
# Revision: 0
# Processed by: cddbd v1.5.1PL0 Copyright (c) Steve Scherf et al.
# Submitted via: ExactAudioCopy v0.90b4
#
DISCID=520fed17
DTITLE=Various Artist - Nashville, 1928
DYEAR=1998
DGENRE=Folk
TTITLE0=Paul Warmack and His Gully Jumpers - Tennessee Waltz
TTITLE1=Paul Warmack and His Gully Jumpers - The Little Red Caboose Behi
TTITLE1=nd The Train
TTITLE2=Binkley Brothers Dixie Clodhoppers - Little Old Log Cabin In T
TTITLE2=he Lane
TTITLE3=Binkley Brothers Dixie Clodhoppers - Give Me Back My Fifteen C
TTITLE3=ents
TTITLE4=Binkley Brothers Dixie Clodhoppers - All Go Hungry Hash House
TTITLE5=Binkley Brothers Dixie Clodhoppers - When I Had But Fifty Cent
TTITLE5=s
TTITLE6=Binkley Brothers Dixie Clodhoppers - It'll Never Happen Again
TTITLE7=Binkley Brothers Dixie Clodhoppers - I'll Rise WhenThe Rooster
TTITLE7=Crows
TTITLE8=Theron Hale and Daughters - Listen To The Mocking Bird
TTITLE9=Theron Hale and Daughters - Turkey Gobbler
TTITLE10=Theron Hale and Daughters - Beautiful Valley
TTITLE11=Theron Hale and Daughters - Jolly Blacksmith
TTITLE12=Theron Hale and Daughters - Hale's Rag
TTITLE13=Paul Warmack and His Gully Jumpers - Robertson County
TTITLE14=Paul Warmack and His Gully Jumpers - Stone Raq
TTITLE15=Poplin-Woods Tennessee String Band - Dreamy Autumn Waltz
TTITLE16=Poplin-Woods Tennessee String Band - Are You From Dixie
TTITLE17=Crook Brothers String Band - My Wife Died On Friday Night
TTITLE18=Crook Brothers String Band - Going Across The Sea
TTITLE19=Crook Brothers String Band - Jobbin Gettin' There
TTITLE20=Crook Brothers String Band - Love Somebody
TTITLE21=Blind Joe Mangrum and Fred Shriver - Bacon And Cabbage
TTITLE22=Blind Joe Mangrum and Fred Shriver - Bill Cheatam
EXTD=
EXTT0=
EXTT1=
EXTT2=
EXTT3=
EXTT4=
EXTT5=
EXTT6=
EXTT7=
EXTT8=
EXTT9=
EXTT10=
EXTT11=
EXTT12=
EXTT13=
EXTT14=
EXTT15=
EXTT16=
EXTT17=
EXTT18=
EXTT19=
EXTT20=
EXTT21=
EXTT22=
PLAYORDER=
